<svg width="40" height="40" viewBox="0 0 40 40" fill="none" xmlns="http://www.w3.org/2000/svg">
<path d="M19.8165 13.7429C18.6413 13.741 17.5035 14.1992 16.6044 15.0365C15.7054 15.8739 15.1032 17.0362 14.9046 18.3176C14.7059 19.5991 14.9235 20.917 15.519 22.0379C16.1144 23.1588 17.0492 24.0104 18.1578 24.4419C18.1498 24.5457 18.1498 24.65 18.1578 24.7538V35.7648C18.1578 36.2515 18.3325 36.7183 18.6436 37.0625C18.9547 37.4066 19.3766 37.6 19.8165 37.6C20.2564 37.6 20.6783 37.4066 20.9894 37.0625C21.3004 36.7183 21.4752 36.2515 21.4752 35.7648V24.7538C21.4832 24.65 21.4832 24.5457 21.4752 24.4419C22.5838 24.0104 23.5185 23.1588 24.114 22.0379C24.7094 20.917 24.9271 19.5991 24.7284 18.3176C24.5297 17.0362 23.9275 15.8739 23.0285 15.0365C22.1295 14.1992 20.9916 13.741 19.8165 13.7429ZM19.8165 21.0835C19.4884 21.0835 19.1677 20.9759 18.8949 20.7742C18.6222 20.5726 18.4096 20.286 18.284 19.9507C18.1585 19.6153 18.1256 19.2463 18.1896 18.8903C18.2536 18.5344 18.4116 18.2074 18.6436 17.9507C18.8756 17.6941 19.1711 17.5193 19.4929 17.4485C19.8146 17.3777 20.1481 17.414 20.4512 17.5529C20.7543 17.6918 21.0134 17.927 21.1956 18.2288C21.3779 18.5306 21.4752 18.8854 21.4752 19.2484C21.4752 19.7351 21.3004 20.2019 20.9894 20.546C20.6783 20.8902 20.2564 21.0835 19.8165 21.0835ZM5.71744 19.2484C5.76275 17.3903 6.17882 15.5664 6.93586 13.9071C7.6929 12.2478 8.77219 10.7943 10.0964 9.65049C10.4352 9.33899 10.6482 8.89138 10.6886 8.40611C10.7291 7.92085 10.5936 7.43769 10.3121 7.06292C10.1727 6.87735 10.0016 6.72398 9.8086 6.61156C9.61562 6.49915 9.40451 6.42988 9.18734 6.40773C8.74873 6.36299 8.31202 6.51285 7.97329 6.82435C6.27201 8.31067 4.88976 10.1958 3.92605 12.3442C2.96235 14.4925 2.44116 16.8505 2.40002 19.2484C2.44116 21.6463 2.96235 24.0043 3.92605 26.1526C4.88976 28.3009 6.27201 30.1861 7.97329 31.6724C8.14101 31.8266 8.33455 31.9428 8.54286 32.0143C8.75117 32.0858 8.97016 32.1112 9.18734 32.089C9.40451 32.0669 9.61562 31.9976 9.8086 31.8852C10.0016 31.7728 10.1727 31.6194 10.3121 31.4338C10.4515 31.2483 10.5565 31.0341 10.6211 30.8037C10.6857 30.5732 10.7087 30.3309 10.6886 30.0906C10.6686 29.8503 10.606 29.6168 10.5044 29.4033C10.4028 29.1898 10.2642 29.0005 10.0964 28.8462C8.77219 27.7025 7.6929 26.2489 6.93586 24.5896C6.17882 22.9303 5.76275 21.1064 5.71744 19.2484Z" fill="#998E80"/>
<path d="M27.7334 10.4C27.3924 10.1734 26.98 10.0803 26.5747 10.1383C26.1695 10.1963 25.7998 10.4014 25.5361 10.7146C25.2724 11.0277 25.1332 11.4269 25.145 11.8361C25.1568 12.2453 25.3188 12.6359 25.6 12.9333C26.4237 13.578 27.0955 14.3959 27.5678 15.3291C28.0402 16.2622 28.3015 17.2879 28.3334 18.3333C28.3015 19.3788 28.0402 20.4044 27.5678 21.3376C27.0955 22.2708 26.4237 23.0887 25.6 23.7333C25.3422 23.9538 25.1577 24.2478 25.0714 24.5759C24.985 24.9041 25.0009 25.2508 25.1168 25.5696C25.2328 25.8885 25.4433 26.1644 25.7203 26.3604C25.9972 26.5565 26.3274 26.6633 26.6667 26.6667C27.0582 26.6627 27.4358 26.5211 27.7334 26.2667C28.9359 25.3184 29.9126 24.1147 30.5929 22.7427C31.2731 21.3706 31.6399 19.8645 31.6667 18.3333C31.6399 16.8021 31.2731 15.296 30.5929 13.924C29.9126 12.5519 28.9359 11.3482 27.7334 10.4V10.4ZM14.6 10.6C14.3156 10.2665 13.9112 10.0585 13.4744 10.0211C13.0377 9.98367 12.6038 10.1198 12.2667 10.4C11.0642 11.3482 10.0875 12.5519 9.40721 13.924C8.72695 15.296 8.36016 16.8021 8.33337 18.3333C8.36016 19.8645 8.72695 21.3706 9.40721 22.7427C10.0875 24.1147 11.0642 25.3184 12.2667 26.2667C12.6038 26.5468 13.0377 26.683 13.4744 26.6455C13.9112 26.6081 14.3156 26.4001 14.6 26.0667C14.8802 25.7296 15.0164 25.2957 14.9789 24.8589C14.9415 24.4222 14.7335 24.0178 14.4 23.7333C13.5764 23.0887 12.9046 22.2708 12.4323 21.3376C11.9599 20.4044 11.6986 19.3788 11.6667 18.3333C11.6986 17.2879 11.9599 16.2622 12.4323 15.3291C12.9046 14.3959 13.5764 13.578 14.4 12.9333C14.7335 12.6488 14.9415 12.2444 14.9789 11.8077C15.0164 11.371 14.8802 10.9371 14.6 10.6V10.6Z" fill="#998E80"/>
<path d="M31.6879 6.82274C31.51 6.66909 31.3047 6.55335 31.0837 6.48213C30.8628 6.41092 30.6304 6.38562 30.4001 6.40769C30.1697 6.42976 29.9457 6.49877 29.741 6.61076C29.5363 6.72275 29.3548 6.87555 29.2069 7.06042C29.0591 7.24528 28.9477 7.45861 28.8791 7.6882C28.8106 7.9178 28.7863 8.15918 28.8075 8.39855C28.8287 8.63792 28.8951 8.87061 29.0029 9.08331C29.1107 9.29602 29.2578 9.48458 29.4357 9.63824C30.8405 10.7777 31.9854 12.2258 32.7884 13.8788C33.5915 15.5319 34.0329 17.3489 34.0809 19.2C34.0329 21.051 33.5915 22.8681 32.7884 24.5211C31.9854 26.1741 30.8405 27.6222 29.4357 28.7617C29.0764 29.072 28.8504 29.5179 28.8075 30.0014C28.7646 30.4848 28.9083 30.9661 29.2069 31.3395C29.5056 31.7129 29.9348 31.9477 30.4001 31.9922C30.8653 32.0368 31.3286 31.8875 31.6879 31.5772C33.4926 30.0965 34.9589 28.2184 35.9812 26.0782C37.0035 23.9379 37.5564 21.5888 37.6 19.2C37.5564 16.8111 37.0035 14.462 35.9812 12.3218C34.9589 10.1815 33.4926 8.30347 31.6879 6.82274V6.82274Z" fill="#998E80"/>
</svg>
