<svg width="70" height="70" viewBox="0 0 70 70" fill="none" xmlns="http://www.w3.org/2000/svg">
<circle cx="35" cy="35" r="35" fill="#FCF0E1"/>
<path d="M46.2166 24.0167L44.0833 25.6833L35 32.4333L25.9166 25.6167L23.7833 23.95C23.2807 23.5342 22.6672 23.2751 22.0188 23.2046C21.3704 23.1341 20.7155 23.2554 20.1353 23.5535C19.5552 23.8515 19.0752 24.3133 18.7549 24.8815C18.4346 25.4496 18.288 26.0993 18.3333 26.75V46.0667C18.3333 46.6678 18.5721 47.2444 18.9972 47.6694C19.4223 48.0945 19.9988 48.3333 20.6 48.3333H25.9166V35.4667L35 42.2833L44.0833 35.4667V48.3333H49.4C50.0011 48.3333 50.5777 48.0945 51.0028 47.6694C51.4278 47.2444 51.6666 46.6678 51.6666 46.0667V26.75C51.6979 26.1049 51.5412 25.4647 51.2154 24.907C50.8896 24.3494 50.4089 23.8984 49.8316 23.6089C49.2543 23.3194 48.6053 23.2038 47.9636 23.2762C47.3218 23.3485 46.7149 23.6058 46.2166 24.0167V24.0167Z" fill="#998E80"/>
</svg>
