<svg width="70" height="70" viewBox="0 0 70 70" fill="none" xmlns="http://www.w3.org/2000/svg">
<circle cx="35" cy="35" r="35" fill="#FCF0E1"/>
<path fill-rule="evenodd" clip-rule="evenodd" d="M15 35.1117C15 45.055 22.2217 53.3233 31.6667 55V40.555H26.6667V35H31.6667V30.555C31.6667 25.555 34.8883 22.7783 39.445 22.7783C40.8883 22.7783 42.445 23 43.8883 23.2217V28.3333H41.3333C38.8883 28.3333 38.3333 29.555 38.3333 31.1117V35H43.6667L42.7783 40.555H38.3333V55C47.7783 53.3233 55 45.0567 55 35.1117C55 24.05 46 15 35 15C24 15 15 24.05 15 35.1117Z" fill="#998E80"/>
</svg>
