<svg width="70" height="70" viewBox="0 0 70 70" fill="none" xmlns="http://www.w3.org/2000/svg">
<circle cx="35" cy="35" r="35" fill="#FCF0E1"/>
<path d="M35 29.793C32.1328 29.793 29.793 32.1328 29.793 35C29.793 37.8672 32.1328 40.207 35 40.207C37.8672 40.207 40.207 37.8672 40.207 35C40.207 32.1328 37.8672 29.793 35 29.793ZM50.6172 35C50.6172 32.8437 50.6367 30.707 50.5156 28.5547C50.3946 26.0547 49.8242 23.8359 47.9961 22.0078C46.1641 20.1758 43.9492 19.6094 41.4492 19.4883C39.293 19.3672 37.1563 19.3867 35.0039 19.3867C32.8477 19.3867 30.7109 19.3672 28.5586 19.4883C26.0586 19.6094 23.8398 20.1797 22.0117 22.0078C20.1797 23.8398 19.6133 26.0547 19.4922 28.5547C19.3711 30.7109 19.3906 32.8477 19.3906 35C19.3906 37.1523 19.3711 39.293 19.4922 41.4453C19.6133 43.9453 20.1836 46.1641 22.0117 47.9922C23.8438 49.8242 26.0586 50.3906 28.5586 50.5117C30.7149 50.6328 32.8516 50.6133 35.0039 50.6133C37.1602 50.6133 39.2969 50.6328 41.4492 50.5117C43.9492 50.3906 46.168 49.8203 47.9961 47.9922C49.8281 46.1601 50.3946 43.9453 50.5156 41.4453C50.6406 39.293 50.6172 37.1562 50.6172 35V35ZM35 43.0117C30.5664 43.0117 26.9883 39.4336 26.9883 35C26.9883 30.5664 30.5664 26.9883 35 26.9883C39.4336 26.9883 43.0117 30.5664 43.0117 35C43.0117 39.4336 39.4336 43.0117 35 43.0117ZM43.3399 28.5312C42.3047 28.5312 41.4688 27.6953 41.4688 26.6602C41.4688 25.625 42.3047 24.7891 43.3399 24.7891C44.375 24.7891 45.211 25.625 45.211 26.6602C45.2113 26.906 45.1631 27.1494 45.0692 27.3766C44.9752 27.6037 44.8374 27.8101 44.6636 27.9839C44.4898 28.1577 44.2834 28.2955 44.0563 28.3894C43.8291 28.4834 43.5857 28.5316 43.3399 28.5312V28.5312Z" fill="#998E80"/>
</svg>
