<svg width="14" height="14" viewBox="0 0 14 14" fill="none" xmlns="http://www.w3.org/2000/svg">
<path d="M12.8333 11.6667V7.10151C12.8333 6.78389 12.7685 6.46962 12.6428 6.17793C12.5172 5.88625 12.3332 5.62329 12.1024 5.40517L7.80146 1.34051C7.58485 1.13571 7.29806 1.02161 6.99996 1.02161C6.70186 1.02161 6.41507 1.13571 6.19846 1.34051L1.89754 5.40517C1.66667 5.62329 1.48276 5.88625 1.35708 6.17793C1.2314 6.46962 1.16659 6.78389 1.16663 7.10151V11.6667C1.16663 11.9761 1.28954 12.2728 1.50833 12.4916C1.72713 12.7104 2.02387 12.8333 2.33329 12.8333H11.6666C11.976 12.8333 12.2728 12.7104 12.4916 12.4916C12.7104 12.2728 12.8333 11.9761 12.8333 11.6667Z" stroke="#998E80" stroke-width="2" stroke-linecap="round" stroke-linejoin="round"/>
</svg>
