<svg width="70" height="70" viewBox="0 0 70 70" fill="none" xmlns="http://www.w3.org/2000/svg">
<circle cx="35" cy="35" r="35" fill="#FCF0E1"/>
<g clip-path="url(#clip0_9_25)">
<path d="M35.1275 19.9975H35.35C37.405 20.005 47.8175 20.08 50.625 20.835C51.4737 21.0654 52.2471 21.5146 52.8679 22.1375C53.4887 22.7605 53.9351 23.5355 54.1625 24.385C54.415 25.335 54.5925 26.5925 54.7125 27.89L54.7375 28.15L54.7925 28.8L54.8125 29.06C54.975 31.345 54.995 33.485 54.9975 33.9525V34.14C54.995 34.625 54.9725 36.91 54.7925 39.29L54.7725 39.5525L54.75 39.8125C54.625 41.2425 54.44 42.6625 54.1625 43.7075C53.9358 44.5574 53.4896 45.3327 52.8687 45.9558C52.2478 46.5789 51.4741 47.0278 50.625 47.2575C47.725 48.0375 36.7025 48.0925 35.175 48.095H34.82C34.0475 48.095 30.8525 48.08 27.5025 47.965L27.0775 47.95L26.86 47.94L26.4325 47.9225L26.005 47.905C23.23 47.7825 20.5875 47.585 19.37 47.255C18.5212 47.0255 17.7477 46.577 17.1268 45.9543C16.506 45.3317 16.0596 44.5569 15.8325 43.7075C15.555 42.665 15.37 41.2425 15.245 39.8125L15.225 39.55L15.205 39.29C15.0816 37.596 15.0132 35.8984 15 34.2L15 33.8925C15.005 33.355 15.025 31.4975 15.16 29.4475L15.1775 29.19L15.185 29.06L15.205 28.8L15.26 28.15L15.285 27.89C15.405 26.5925 15.5825 25.3325 15.835 24.385C16.0617 23.5351 16.5079 22.7598 17.1288 22.1367C17.7497 21.5136 18.5234 21.0647 19.3725 20.835C20.59 20.51 23.2325 20.31 26.0075 20.185L26.4325 20.1675L26.8625 20.1525L27.0775 20.145L27.505 20.1275C29.8843 20.0509 32.2645 20.0084 34.645 20H35.1275V19.9975ZM31 28.0225V40.0675L41.3925 34.0475L31 28.0225Z" fill="#998E80"/>
</g>
<defs>
<clipPath id="clip0_9_25">
<rect width="40" height="40" fill="white" transform="translate(15 15)"/>
</clipPath>
</defs>
</svg>
